<svg width="1591" height="601" viewBox="0 0 1591 601" fill="none" xmlns="http://www.w3.org/2000/svg">
<path d="M916.877 449.777C844.355 449.777 793.471 412.114 790.265 347.606H835.941C839.147 386.07 861.985 412.114 915.675 412.114C961.752 412.114 975.775 392.08 975.775 366.037C975.775 329.576 947.728 324.367 895.641 311.145C850.766 299.125 801.484 284.701 801.484 230.21C801.484 180.527 839.948 152.079 901.651 152.079C966.96 152.079 1009.43 185.335 1013.84 243.031H968.162C963.354 208.574 943.721 189.742 902.052 189.742C865.992 189.742 847.561 202.964 847.561 227.806C847.561 259.859 877.611 266.671 914.473 275.886C969.765 289.91 1021.85 303.132 1021.85 363.633C1021.85 412.915 988.596 449.777 916.877 449.777ZM1062.25 444.167V157.689H1182.86C1241.75 157.689 1276.21 184.133 1276.21 229.809C1276.21 265.068 1255.38 281.496 1231.74 289.509V290.31C1261.79 295.519 1287.43 317.556 1287.43 360.427C1287.43 415.319 1249.37 444.167 1190.07 444.167H1062.25ZM1106.33 406.104H1186.86C1229.33 406.104 1241.35 385.67 1241.35 358.825C1241.35 328.775 1222.92 311.546 1192.87 311.546H1106.33V406.104ZM1106.33 276.688H1181.65C1217.71 276.688 1230.13 261.863 1230.13 236.22C1230.13 210.978 1214.91 195.752 1184.86 195.752H1106.33V276.688ZM1449.3 449.777C1367.96 449.777 1315.47 387.272 1315.47 301.128C1315.47 214.584 1368.36 152.079 1449.7 152.079C1521.42 152.079 1565.89 197.756 1572.7 255.051H1526.63C1521.42 227.005 1503.79 190.143 1448.9 190.143C1385.59 190.143 1361.55 243.833 1361.55 300.728C1361.55 358.023 1385.59 411.713 1448.9 411.713C1504.19 411.713 1523.82 374.851 1526.63 339.993H1572.7C1566.29 403.7 1521.42 449.777 1449.3 449.777Z" fill="white" style="fill:white;fill-opacity:1;"/>
<path d="M300.502 601C466.464 601 601.004 466.461 601.004 300.5C601.004 134.538 466.464 0 300.502 0C134.539 0 0 134.538 0 300.5C0 466.461 134.539 601 300.502 601Z" fill="#6938EF" style="fill:#6938EF;fill:color(display-p3 0.4118 0.2196 0.9373);fill-opacity:1;"/>
<path d="M300.502 563.437C445.719 563.437 563.441 445.716 563.441 300.5C563.441 155.284 445.719 37.5627 300.502 37.5627C155.285 37.5627 37.5627 155.284 37.5627 300.5C37.5627 445.716 155.285 563.437 300.502 563.437Z" fill="#8760F2" style="fill:#8760F2;fill:color(display-p3 0.5294 0.3765 0.9490);fill-opacity:1;"/>
<path d="M300.502 525.875C424.974 525.875 525.878 424.971 525.878 300.5C525.878 176.029 424.974 75.1255 300.502 75.1255C176.03 75.1255 75.1255 176.029 75.1255 300.5C75.1255 424.971 176.03 525.875 300.502 525.875Z" fill="#A588F5" style="fill:#A588F5;fill:color(display-p3 0.6471 0.5333 0.9608);fill-opacity:1;"/>
<path d="M300.502 488.313C404.228 488.313 488.316 404.227 488.316 300.501C488.316 196.775 404.228 112.688 300.502 112.688C196.775 112.688 112.688 196.775 112.688 300.501C112.688 404.227 196.775 488.313 300.502 488.313Z" fill="#C3AFF9" style="fill:#C3AFF9;fill:color(display-p3 0.7647 0.6863 0.9765);fill-opacity:1;"/>
<path d="M300.502 450.751C383.483 450.751 450.753 383.482 450.753 300.501C450.753 217.52 383.483 150.251 300.502 150.251C217.521 150.251 150.251 217.52 150.251 300.501C150.251 383.482 217.521 450.751 300.502 450.751Z" fill="#E1D7FC" style="fill:#E1D7FC;fill:color(display-p3 0.8824 0.8431 0.9882);fill-opacity:1;"/>
<path d="M300.502 413.189C362.738 413.189 413.19 362.737 413.19 300.501C413.19 238.266 362.738 187.814 300.502 187.814C238.266 187.814 187.814 238.266 187.814 300.501C187.814 362.737 238.266 413.189 300.502 413.189Z" fill="white" style="fill:white;fill-opacity:1;"/>
<path d="M300.502 375.626C341.992 375.626 375.627 341.992 375.627 300.501C375.627 259.011 341.992 225.376 300.502 225.376C259.011 225.376 225.376 259.011 225.376 300.501C225.376 341.992 259.011 375.626 300.502 375.626Z" fill="#6938EF" style="fill:#6938EF;fill:color(display-p3 0.4118 0.2196 0.9373);fill-opacity:1;"/>
</svg>
